# xmcd
#
# Track frame offsets:
#	150
#	15399
#	32916
#	46536
#	60341
#	78609
#	93787
#	108150
#	122946
#	140341
#	156182
#	177782
#	195101
#	228329
#	238121
#	259803
#
# Disc length: 3854 seconds
#
# Revision: 1
# Processed by: cddbd v1.5.2PL0 Copyright (c) Steve Scherf et al.
# Submitted via: audiograbber 1.83.01
#
DISCID=bc0f0c10
DTITLE=Divers Artistes - Bomba
DYEAR=1900
DGENRE=Folklore
TTITLE0=Contestatión a Carpuela
TTITLE1=Ubaldina de la loma
TTITLE2=Vicente
TTITLE3=Negra mía
TTITLE4=Conflieto
TTITLE5=Lágrimas de tu corazón
TTITLE6=Mi Lindo Carpuela
TTITLE7=La Bomba vengan todos a bailar
TTITLE8=Negra Josefina
TTITLE9=La Loma
TTITLE10=En Guallupe
TTITLE11=Debajo de tu Fustán yo vi correr un piojo
TTITLE12=El desastre
TTITLE13=La Choteñita
TTITLE14=Peregoya en Bomba
TTITLE15=Bomba Jazz
EXTD=
EXTT0=
EXTT1=
EXTT2=
EXTT3=
EXTT4=
EXTT5=
EXTT6=
EXTT7=
EXTT8=
EXTT9=
EXTT10=
EXTT11=
EXTT12=
EXTT13=
EXTT14=
EXTT15=
PLAYORDER=
